<?xml version="1.0" encoding="utf-8"?>
<!-- Generator: Adobe Illustrator 18.0.0, SVG Export Plug-In . SVG Version: 6.00 Build 0)  -->
<!DOCTYPE svg PUBLIC "-//W3C//DTD SVG 1.1//EN" "http://www.w3.org/Graphics/SVG/1.1/DTD/svg11.dtd">
<svg version="1.1" id="Layer_1" xmlns="http://www.w3.org/2000/svg" xmlns:xlink="http://www.w3.org/1999/xlink" x="0px" y="0px"
	 viewBox="0 0 2816.2 1065.3" enable-background="new 0 0 2816.2 1065.3" xml:space="preserve">
<path stroke="#000000" stroke-width="0" stroke-linecap="round" stroke-linejoin="round" d="M1345.5,1022.9
	c3.9,9.5,6.4,20.3,12.7,27.9c12,14.5,33.1,18,50.2,10.9c18.5-7.7,28.7-23.2,28.7-43.9c0-233.1,0-466.3,0-699.4c0-3.9,0-7.9,0-11.8
	c4.1,3.2,5.9,6.6,7.6,10c24.7,49.3,49.4,98.7,74.1,148c57.4,114.7,114.7,229.4,172.1,344.1c10.6,21.2,25.3,29.8,47.8,27.5
	c19.4-2.1,30.7-14.6,39-31.2c81-162.3,162.2-324.5,243.3-486.8c1.9-3.7,3.8-7.4,5.7-11.1c0.8,0.3,1.5,0.7,2.3,1c0,4.2,0,8.5,0,12.7
	c0,229.3,0,458.5,0.1,687.8c0,8.5,0.3,17.3,2.7,25.3c6.4,21.3,28.7,34.4,50.2,30.7c25.4-4.4,39.4-21.8,39.4-49.5
	c0-301.6,0-603.3,0-904.9c0-5-0.1-10.2-1.3-15c-4.6-19.2-20-32.4-39.5-34.4c-21.5-2.3-36.1,5.8-46.2,25.8
	c-90.9,180.8-181.8,361.7-272.6,542.5c-9.4,18.7-18.8,37.4-29.1,58c-2.8-5.4-4.6-8.8-6.4-12.3c-31.9-63.9-63.8-127.7-95.8-191.6
	c-66-131.9-131.8-263.8-198.3-395.4c-4.9-9.7-14-19.5-23.7-24c-30.9-14.2-63.1,8.9-63.1,43.7c0,303.2,0,606.4,0,909.6
	C1345.4,1019,1344.8,1021.2,1345.5,1022.9z"/>
<path stroke="#000000" stroke-width="0" stroke-linecap="round" stroke-linejoin="round" d="M0.1,1017.4c0,5.4,0.6,11,2.2,16
	c7,21.3,29.2,34.9,50.1,31.2c23.1-4.1,39.2-23.1,39.2-46.7c0-131.6,0-263.1,0-394.7c0-4.7,0-9.3,0-16c5.9,0,10.4,0,15,0
	c131.6,0,263.1,0.1,394.7,0c37.2,0,59-37.6,40.2-69.2c-9.4-15.9-24.3-22-42.3-22c-131.2,0.1-262.4,0-393.6,0c-4.5,0-8.9,0-13.4,0
	c0-122.4,0-242.9,0-364.4c5.3,0,9.9,0,14.4,0c128.8,0,257.7,0,386.5,0c3.5,0,7,0.2,10.5-0.1c27.3-1.8,44.3-20.9,43.7-48.8
	c-0.6-24.7-19.5-42.2-46.1-42.3c-151.8-0.1-303.6-0.1-455.4,0c-27.9,0-46,18.2-46,46C0,410.2,0,713.8,0.1,1017.4z"/>
<path stroke="#000000" stroke-width="0" stroke-linecap="round" stroke-linejoin="round" d="M1189.1,768.7
	c-15.9-65.2-32.2-130.3-48-195.6c-1.5-6.1-1.9-13.2-0.4-19.2c12.5-52.4,25.1-104.9,38.7-157.1c9.6-36.7,16.7-73,9.6-111.3
	c-23.9-130.3-137.3-225-270.8-225.8c-11.6,1-23.3,1.6-34.8,3c-109.4,13.6-200.3,92.6-228,198c-8.2,31.1-14.3,63-7.1,94.5
	c15,65.9,32.8,131.1,49,196.7c1.6,6.5,1.8,14,0.2,20.4c-12.4,50.5-24.5,101.1-38.4,151.3c-10.8,39.1-17,77.9-9.1,118.4
	c28.8,148.1,165.4,244.7,314.9,218.1c113.9-20.3,186.7-89.7,219-200.6C1192.5,830,1196.6,799.4,1189.1,768.7z M1089.9,854.8
	c-26.1,70.1-97.2,118.1-172.1,117.1c-90,0.9-172.5-68-180.4-169.2c-0.9-11.1,3.7-22.8,6.5-34c15.7-62.8,32.1-125.5,47.2-188.5
	c2.7-11.2,2.6-24.2-0.1-35.5c-16.6-69-34.6-137.7-51.7-206.6c-6-24.2,1.5-47.2,10-69.1c30.3-77.9,104.6-120.4,180.5-115.8
	c88.5,5.4,158.1,73.8,169.9,154.5c1.6,11.2,0.9,23.4-1.8,34.4l-50.1,239c16.5,69.1,34.6,137.8,51.6,206.7
	C1105.2,811,1097.9,833.3,1089.9,854.8z"/>
<path stroke="#000000" stroke-width="0" stroke-linecap="round" stroke-linejoin="round" d="M2812.6,770.4
	c-15.9-66-32.4-131.9-48.3-197.9c-1.5-6.1-1.6-13.2-0.2-19.3c12.6-52.4,25.1-104.9,38.8-157.1c9.6-36.7,16.7-73.1,9.3-111.3
	c-25.2-130.9-137.2-224.4-270-225.3c-12,1-24,1.7-36,3.1c-108.1,12.7-201.4,94.3-227.9,199.6c-7.7,30.7-13.7,62.3-6.5,93.4
	c15.3,65.8,32.8,131.1,49.1,196.7c1.5,6.1,1.7,13.2,0.2,19.3c-11.6,47.5-24,94.8-35.8,142.3c-5.5,22.2-13.9,44.4-15.1,66.9
	c-9.3,169,141.2,305.1,309.8,281.5c109.1-15.2,199.4-95.1,227.1-201.3C2814.7,831.5,2820,801.1,2812.6,770.4z M2712.9,855.4
	c-26.5,69.8-97,117.3-171.4,116.4c-91.2,1-173.6-68.8-180.8-169.9c-1-14.4,5.7-29.5,9.3-44.1c14.9-59.5,30.4-118.8,44.6-178.4
	c2.6-10.9,2.5-23.5-0.2-34.4c-16.7-69-34.6-137.7-51.7-206.6c-6.3-25.4,1.6-49.4,11-72.4c31.3-76.6,105.3-117.7,180-113
	c87.1,5.6,156.6,73.1,169.6,153.9c2.7,16.8-0.9,32.4-4.9,48.2c-15.9,62.9-32.3,125.6-47.3,188.7c-2.8,12-2.7,25.8,0.2,37.8
	c16.6,69.1,34.7,137.7,51.6,206.7C2728.6,811.6,2721,834,2712.9,855.4z"/>
</svg>
